# xmcd CD database file
#
# Track frame offsets:
#	150
#	19505
#	41223
#	62708
#	86534
#	111722
#	132790
#	152045
#	177584
#	199361
#	219106
#	238105
#	259508
#	281389
#	296599
#
# Disc length: 4286 seconds
#
# Revision: 1
# Processed by: cddbd v1.5.2PL0 Copyright (c) Steve Scherf et al.
# Submitted via: CDex 1.70beta2
#
DISCID=dd10bc0f
DTITLE=Wolfgang Buschner liest Karl May - Der Ölprinz
DYEAR=2006
DGENRE=Hörbuch Karl May
TTITLE0=Der Ölprinz-CD02-01
TTITLE1=Der Ölprinz-CD02-02
TTITLE2=Der Ölprinz-CD02-03
TTITLE3=Der Ölprinz-CD02-04
TTITLE4=Der Ölprinz-CD02-05
TTITLE5=Der Ölprinz-CD02-06
TTITLE6=Der Ölprinz-CD02-07
TTITLE7=Der Ölprinz-CD02-08
TTITLE8=Der Ölprinz-CD02-09
TTITLE9=Der Ölprinz-CD02-10
TTITLE10=Der Ölprinz-CD02-11
TTITLE11=Der Ölprinz-CD02-12
TTITLE12=Der Ölprinz-CD02-13
TTITLE13=Der Ölprinz-CD02-14
TTITLE14=Der Ölprinz-CD02-15
EXTD=YEAR: 2006
EXTT0=
EXTT1=
EXTT2=
EXTT3=
EXTT4=
EXTT5=
EXTT6=
EXTT7=
EXTT8=
EXTT9=
EXTT10=
EXTT11=
EXTT12=
EXTT13=
EXTT14=
PLAYORDER=
